<svg id="Layer_1" data-name="Layer 1" xmlns="http://www.w3.org/2000/svg" viewBox="0 0 64.8 89.28"><defs><style>.cls-1{fill:#fff;}</style></defs><path class="cls-1" d="M0,89.28V0H64.8V89.28Zm33-5.34c.32-.4.52-.6.67-.83C37.76,77.21,42,71.37,46,65.37a133.5,133.5,0,0,0,12.59-23c2-4.94,3.13-10,2.22-15.38-2.15-12.78-13.6-23-26.56-23.34-11.13-.26-19.77,4.44-25.5,14-4,6.62-5.11,13.8-2.54,21.35a90.47,90.47,0,0,0,6.76,14.74A250.79,250.79,0,0,0,28,77.1C29.55,79.37,31.23,81.58,33,83.94Z"/><path d="M33,83.94c-1.73-2.36-3.41-4.57-5-6.84a250.79,250.79,0,0,1-15-23.42A90.47,90.47,0,0,1,6.18,38.94C3.61,31.39,4.73,24.21,8.72,17.59c5.73-9.52,14.37-14.22,25.5-14,13,.3,24.41,10.56,26.56,23.34.91,5.43-.19,10.44-2.22,15.38A133.5,133.5,0,0,1,46,65.37c-4,6-8.21,11.84-12.34,17.74C33.48,83.34,33.28,83.54,33,83.94ZM46.68,31.83A13.7,13.7,0,1,0,32.92,45.49,13.68,13.68,0,0,0,46.68,31.83Z"/></svg>